<svg width="226" height="23" viewBox="0 0 226 23" fill="none" xmlns="http://www.w3.org/2000/svg">
<path d="M10.6836 12.875L11.1758 9.64062H8.04688V7.53125C8.04688 6.61719 8.46875 5.77344 9.875 5.77344H11.3164V2.99609C11.3164 2.99609 10.0156 2.75 8.78516 2.75C6.21875 2.75 4.53125 4.33203 4.53125 7.14453V9.64062H1.64844V12.875H4.53125V20.75H8.04688V12.875H10.6836Z" fill="#292F36"/>
<path d="M82.6367 8.09375C82.6367 8.26953 82.6367 8.41016 82.6367 8.58594C82.6367 13.4727 78.9453 19.0625 72.1602 19.0625C70.0508 19.0625 68.1172 18.4648 66.5 17.4102C66.7812 17.4453 67.0625 17.4805 67.3789 17.4805C69.1016 17.4805 70.6836 16.8828 71.9492 15.8984C70.332 15.8633 68.9609 14.8086 68.5039 13.332C68.75 13.3672 68.9609 13.4023 69.207 13.4023C69.5234 13.4023 69.875 13.332 70.1562 13.2617C68.4688 12.9102 67.2031 11.4336 67.2031 9.64062V9.60547C67.6953 9.88672 68.293 10.0273 68.8906 10.0625C67.8711 9.39453 67.2383 8.26953 67.2383 7.00391C67.2383 6.30078 67.4141 5.66797 67.7305 5.14062C69.5586 7.35547 72.3008 8.83203 75.3594 9.00781C75.2891 8.72656 75.2539 8.44531 75.2539 8.16406C75.2539 6.125 76.9062 4.47266 78.9453 4.47266C80 4.47266 80.9492 4.89453 81.6523 5.63281C82.4609 5.45703 83.2695 5.14062 83.9727 4.71875C83.6914 5.59766 83.1289 6.30078 82.3555 6.75781C83.0938 6.6875 83.832 6.47656 84.4648 6.19531C83.9727 6.93359 83.3398 7.56641 82.6367 8.09375Z" fill="#292F36"/>
<path d="M142.141 18.5H138.871V7.98828H142.141V18.5ZM140.488 6.58203C139.469 6.58203 138.625 5.70312 138.625 4.64844C138.625 3.62891 139.469 2.78516 140.488 2.78516C141.543 2.78516 142.387 3.62891 142.387 4.64844C142.387 5.70312 141.543 6.58203 140.488 6.58203ZM154.34 18.5H151.105V13.4023C151.105 12.1719 151.07 10.625 149.383 10.625C147.695 10.625 147.449 11.9258 147.449 13.2969V18.5H144.18V7.98828H147.309V9.42969H147.344C147.801 8.62109 148.855 7.74219 150.438 7.74219C153.742 7.74219 154.375 9.92188 154.375 12.7344V18.5H154.34Z" fill="#292F36"/>
<path d="M217 7.60742C219.338 7.60742 221.268 9.53711 221.268 11.875C221.268 14.25 219.338 16.1426 217 16.1426C214.625 16.1426 212.732 14.25 212.732 11.875C212.732 9.53711 214.625 7.60742 217 7.60742ZM217 14.6582C218.521 14.6582 219.746 13.4336 219.746 11.875C219.746 10.3535 218.521 9.12891 217 9.12891C215.441 9.12891 214.217 10.3535 214.217 11.875C214.217 13.4336 215.479 14.6582 217 14.6582ZM222.418 7.45898C222.418 8.01562 221.973 8.46094 221.416 8.46094C220.859 8.46094 220.414 8.01562 220.414 7.45898C220.414 6.90234 220.859 6.45703 221.416 6.45703C221.973 6.45703 222.418 6.90234 222.418 7.45898ZM225.238 8.46094C225.312 9.83398 225.312 13.9531 225.238 15.3262C225.164 16.6621 224.867 17.8125 223.902 18.8145C222.938 19.7793 221.75 20.0762 220.414 20.1504C219.041 20.2246 214.922 20.2246 213.549 20.1504C212.213 20.0762 211.062 19.7793 210.061 18.8145C209.096 17.8125 208.799 16.6621 208.725 15.3262C208.65 13.9531 208.65 9.83398 208.725 8.46094C208.799 7.125 209.096 5.9375 210.061 4.97266C211.062 4.00781 212.213 3.71094 213.549 3.63672C214.922 3.5625 219.041 3.5625 220.414 3.63672C221.75 3.71094 222.938 4.00781 223.902 4.97266C224.867 5.9375 225.164 7.125 225.238 8.46094ZM223.457 16.7734C223.902 15.6973 223.791 13.0996 223.791 11.875C223.791 10.6875 223.902 8.08984 223.457 6.97656C223.16 6.27148 222.604 5.67773 221.898 5.41797C220.785 4.97266 218.188 5.08398 217 5.08398C215.775 5.08398 213.178 4.97266 212.102 5.41797C211.359 5.71484 210.803 6.27148 210.506 6.97656C210.061 8.08984 210.172 10.6875 210.172 11.875C210.172 13.0996 210.061 15.6973 210.506 16.7734C210.803 17.5156 211.359 18.0723 212.102 18.3691C213.178 18.8145 215.775 18.7031 217 18.7031C218.188 18.7031 220.785 18.8145 221.898 18.3691C222.604 18.0723 223.197 17.5156 223.457 16.7734Z" fill="#292F36"/>
</svg>
